<?xml version="1.0" encoding="utf-8"?>
<!-- Generator: Adobe Illustrator 16.0.0, SVG Export Plug-In . SVG Version: 6.00 Build 0)  -->
<!DOCTYPE svg PUBLIC "-//W3C//DTD SVG 1.1//EN" "http://www.w3.org/Graphics/SVG/1.1/DTD/svg11.dtd">
<svg version="1.1" id="Layer_2" xmlns="http://www.w3.org/2000/svg" xmlns:xlink="http://www.w3.org/1999/xlink" x="0px" y="0px"
	 width="445.478px" height="140.993px" viewBox="0 0 445.478 140.993" enable-background="new 0 0 445.478 140.993"
	 xml:space="preserve">
<g>
	<path fill="#00A6CA" d="M76.617,90.99c-1.125-0.829-2.394-1.464-3.815-1.905c-1.418-0.441-2.861-0.638-4.327-0.583
		c-1.076,0-2.162,0.118-3.266,0.362c-1.098,0.244-2.114,0.612-3.041,1.104c-0.931,0.487-1.761,1.099-2.499,1.831
		c-0.731,0.734-1.269,1.59-1.612,2.567c-0.097-1.417-0.503-2.553-1.209-3.408c-0.709-0.859-1.591-1.481-2.643-1.872
		c-1.052-0.39-2.225-0.583-3.522-0.583c-1.296,0-2.606,0.142-3.923,0.435l0.074,5.429c0.928-0.045,1.66,0.014,2.201,0.183
		c0.537,0.174,0.914,0.453,1.135,0.847c0.222,0.389,0.354,0.881,0.405,1.464c0.048,0.59,0.075,1.271,0.075,2.056v25.604h7.92
		v-20.394c0-1.42,0.246-2.655,0.736-3.708c0.486-1.045,1.149-1.92,1.981-2.602c0.832-0.688,1.795-1.203,2.896-1.541
		c1.101-0.345,2.24-0.514,3.413-0.514c2.024,0,3.93,0.459,5.71,1.36l-0.007-0.014L76.617,90.99z"/>
	<path fill="#00A6CA" d="M111.671,118.87c-0.512-0.193-0.893-0.513-1.138-0.953c-0.246-0.442-0.38-0.98-0.403-1.617
		c-0.024-0.635-0.034-1.367-0.034-2.199V91.726c-2.348-1.026-4.722-1.825-7.119-2.383c-2.396-0.562-4.868-0.841-7.407-0.841
		c-2.89-0.054-5.539,0.349-7.963,1.207c-2.421,0.858-4.521,2.116-6.307,3.777c-1.788,1.662-3.195,3.669-4.219,6.016
		c-1.028,2.349-1.568,4.987-1.613,7.925c0,2.492,0.329,4.818,0.988,6.965c0.662,2.155,1.649,4.037,2.974,5.648
		c1.319,1.617,2.98,2.874,4.988,3.783c2.004,0.902,4.353,1.354,7.041,1.354c2.593,0,5.025-0.672,7.301-2.019
		c2.274-1.342,3.899-3.236,4.879-5.683c0,1.86,0.291,3.315,0.879,4.365c0.588,1.051,1.368,1.836,2.347,2.35
		c0.976,0.51,2.081,0.776,3.303,0.805c1.22,0.026,2.468-0.085,3.741-0.33v-5.648C112.929,119.115,112.184,119.065,111.671,118.87z
		 M102.39,106.764c-0.097,3.279-0.916,5.977-2.456,8.106c-1.541,2.128-3.804,3.191-6.785,3.191c-3.277,0-5.714-0.965-7.301-2.898
		c-1.59-1.929-2.386-4.509-2.386-7.736c0.05-1.909,0.368-3.634,0.957-5.175c0.585-1.539,1.378-2.861,2.382-3.959
		c1.002-1.103,2.189-1.947,3.558-2.532c1.369-0.591,2.908-0.88,4.623-0.88c1.125,0,2.334,0.11,3.632,0.329
		c1.295,0.219,2.552,0.6,3.776,1.136V106.764z"/>
	<path fill="#00A6CA" d="M149.848,92.861c-1.148-1.345-2.604-2.407-4.362-3.189c-1.765-0.781-3.838-1.171-6.237-1.171
		c-1.174,0-2.363,0.108-3.559,0.328c-1.2,0.22-2.347,0.561-3.449,1.028c-1.097,0.462-2.091,1.086-2.97,1.869
		c-0.882,0.784-1.567,1.734-2.051,2.86c0-1.661-0.347-2.943-1.031-3.853c-0.685-0.905-1.552-1.517-2.605-1.831
		c-1.049-0.318-2.234-0.439-3.554-0.364c-1.323,0.072-2.62,0.228-3.893,0.475v5.502c0.885-0.049,1.583-0.012,2.093,0.11
		c0.514,0.119,0.892,0.366,1.135,0.731c0.246,0.369,0.394,0.882,0.439,1.543c0.052,0.658,0.075,1.505,0.075,2.531v25.089h8.07
		v-20.103c0-1.417,0.23-2.714,0.699-3.889c0.465-1.172,1.097-2.175,1.905-3.003c0.807-0.837,1.747-1.485,2.823-1.948
		c1.08-0.464,2.249-0.695,3.523-0.695c2.396,0.05,4.389,0.843,5.98,2.385c1.587,1.542,2.358,3.703,2.307,6.49v20.763h8.073v-20.763
		c0-2.2-0.283-4.229-0.845-6.088C151.852,95.81,150.997,94.208,149.848,92.861z"/>
	<path fill="#00A6CA" d="M185.553,106.104c-1.346-0.735-2.897-1.271-4.66-1.616c-1.755-0.337-3.569-0.633-5.428-0.881
		c-2.784-0.336-4.878-0.77-6.268-1.281c-1.396-0.515-2.117-1.501-2.166-2.97c-0.049-0.782,0.122-1.482,0.517-2.089
		c0.387-0.613,0.935-1.128,1.649-1.542c0.706-0.418,1.503-0.733,2.381-0.952c0.881-0.224,1.784-0.334,2.715-0.334
		c0.927,0,1.869,0.077,2.825,0.222c0.954,0.145,1.807,0.4,2.566,0.769c0.756,0.368,1.38,0.847,1.873,1.43
		c0.488,0.59,0.733,1.325,0.733,2.204h7.041c0.048-1.762-0.319-3.301-1.1-4.625c-0.784-1.321-1.867-2.428-3.266-3.335
		c-1.395-0.905-3.008-1.578-4.841-2.018c-1.835-0.441-3.777-0.661-5.831-0.661c-1.908,0-3.766,0.219-5.573,0.661
		c-1.81,0.439-3.414,1.126-4.808,2.053c-1.394,0.932-2.518,2.08-3.372,3.447c-0.86,1.369-1.285,3.01-1.285,4.916
		c0.047,2.005,0.548,3.595,1.502,4.769c0.952,1.175,2.176,2.09,3.67,2.751c1.488,0.659,3.154,1.136,4.988,1.429
		c1.833,0.296,3.655,0.564,5.464,0.809c2.349,0.292,4.258,0.758,5.72,1.394c1.471,0.636,2.202,1.759,2.202,3.375
		c-0.049,1.078-0.329,1.966-0.845,2.678c-0.512,0.708-1.172,1.257-1.976,1.65c-0.809,0.388-1.701,0.673-2.68,0.843
		c-0.98,0.171-1.957,0.255-2.935,0.255c-0.977,0-1.933-0.111-2.864-0.328c-0.925-0.22-1.77-0.553-2.528-0.99
		c-0.758-0.444-1.382-0.991-1.869-1.652c-0.49-0.66-0.762-1.455-0.808-2.384h-7.847c0.144,2.199,0.705,4.023,1.683,5.464
		c0.982,1.443,2.214,2.605,3.706,3.486c1.492,0.881,3.182,1.493,5.063,1.833c1.882,0.344,3.802,0.513,5.755,0.513
		c1.957,0,3.866-0.219,5.724-0.661c1.858-0.438,3.498-1.109,4.915-2.017c1.424-0.902,2.571-2.065,3.45-3.482
		c0.878-1.419,1.318-3.107,1.318-5.064c0-2.1-0.415-3.787-1.245-5.06C187.988,107.837,186.901,106.837,185.553,106.104z"/>
	<path fill="#00A6CA" d="M275.049,92.861c-1.151-1.345-2.601-2.407-4.363-3.189c-1.764-0.781-3.84-1.171-6.236-1.171
		c-1.179,0-2.36,0.108-3.558,0.328c-1.202,0.22-2.35,0.561-3.449,1.028c-1.099,0.462-2.091,1.086-2.972,1.869
		c-0.881,0.784-1.566,1.734-2.055,2.86c0-1.662-0.34-2.943-1.024-3.853c-0.688-0.905-1.555-1.517-2.606-1.831
		c-1.052-0.318-2.237-0.439-3.557-0.364c-1.32,0.072-2.619,0.228-3.888,0.475v5.502c0.882-0.051,1.577-0.012,2.09,0.11
		c0.515,0.119,0.895,0.366,1.135,0.731c0.247,0.369,0.392,0.882,0.439,1.542c0.051,0.66,0.078,1.506,0.078,2.532v25.089h8.067
		v-20.103c0-1.417,0.231-2.715,0.696-3.889c0.465-1.172,1.104-2.175,1.909-3.003c0.808-0.837,1.744-1.485,2.822-1.948
		c1.077-0.464,2.253-0.695,3.524-0.695c2.394,0.05,4.388,0.843,5.975,2.385c1.592,1.542,2.36,3.703,2.313,6.49v20.763h8.068v-20.763
		c0-2.2-0.281-4.229-0.841-6.088C277.056,95.809,276.197,94.208,275.049,92.861z"/>
	<path fill="#00A6CA" d="M289.154,73.529c-1.222,0-2.333,0.396-3.34,1.178c-1.002,0.78-1.503,1.958-1.503,3.521
		c0,1.612,0.516,2.825,1.54,3.63c1.032,0.806,2.156,1.189,3.379,1.138c1.171-0.049,2.244-0.465,3.227-1.246
		c0.977-0.785,1.467-1.958,1.467-3.522c0-1.563-0.49-2.741-1.467-3.521C291.474,73.925,290.375,73.529,289.154,73.529z"/>
	<rect x="285.121" y="89.159" fill="#00A6CA" width="7.995" height="35.36"/>
	<path fill="#00A6CA" d="M330.367,92.935c-1.763-1.492-3.789-2.604-6.09-3.338c-2.297-0.733-4.669-1.096-7.112-1.096
		c-2.301,0-4.551,0.375-6.751,1.133c-2.2,0.762-4.156,1.897-5.866,3.413c-1.715,1.516-3.097,3.408-4.147,5.686
		c-1.051,2.274-1.578,4.929-1.578,7.958c0,3.082,0.536,5.785,1.613,8.107c1.078,2.322,2.481,4.254,4.219,5.794
		c1.734,1.538,3.716,2.689,5.94,3.448c2.228,0.759,4.515,1.137,6.862,1.137c2.348,0,4.635-0.377,6.863-1.137
		c2.223-0.759,4.216-1.91,5.979-3.448c1.758-1.54,3.176-3.472,4.252-5.794c1.077-2.323,1.616-5.025,1.616-8.107
		c0-3.084-0.528-5.769-1.579-8.069C333.533,96.323,332.128,94.426,330.367,92.935z M327.25,111.68
		c-0.614,1.419-1.409,2.609-2.385,3.558c-0.977,0.954-2.104,1.677-3.378,2.164c-1.271,0.492-2.566,0.736-3.884,0.736
		c-1.37,0-2.705-0.232-3.999-0.7c-1.298-0.465-2.458-1.174-3.483-2.126c-1.028-0.954-1.854-2.155-2.457-3.596
		c-0.614-1.443-0.92-3.115-0.92-5.025c0-1.857,0.292-3.486,0.881-4.88c0.587-1.393,1.37-2.541,2.35-3.446
		c0.977-0.904,2.089-1.589,3.336-2.056c1.247-0.463,2.53-0.722,3.853-0.771c1.367-0.045,2.712,0.148,4.033,0.591
		c1.321,0.438,2.495,1.121,3.522,2.054c1.026,0.927,1.858,2.101,2.491,3.518c0.636,1.419,0.954,3.082,0.954,4.989
		C328.165,108.602,327.861,110.262,327.25,111.68z"/>
	<path fill="#00A6CA" d="M12.493,80.723v-7.554h38.145v7.554H35.749v43.796h-8.361V80.723H12.493z"/>
	<path fill="#00A6CA" d="M196.124,107.279V73.164h8.51v33.893c0,6.75,5.058,10.489,11.587,10.489
		c6.455,0,11.446-3.739,11.446-10.489V73.164h8.436v34.115c0,11.443-8.952,17.898-19.882,17.898
		C205.146,125.177,196.124,118.722,196.124,107.279z"/>
	<path fill="#00A6CA" d="M375.799,116.226v-5.567h-0.003v-6.903c0-2.2-0.279-4.229-0.839-6.088c-0.567-1.859-1.42-3.46-2.568-4.807
		c-1.153-1.345-2.604-2.407-4.365-3.189c-1.765-0.781-3.844-1.171-6.239-1.171c-1.175,0-2.363,0.108-3.556,0.328
		c-1.199,0.22-2.349,0.561-3.45,1.028c-1.1,0.461-2.091,1.086-2.973,1.869c-0.881,0.783-1.564,1.734-2.052,2.86
		c0-1.662-0.343-2.943-1.027-3.853c-0.689-0.905-1.556-1.518-2.606-1.831c-1.052-0.318-2.238-0.439-3.558-0.364
		c-1.32,0.072-2.617,0.228-3.885,0.475v5.502c0.88-0.051,1.577-0.012,2.089,0.11c0.512,0.118,0.89,0.366,1.137,0.731
		c0.243,0.369,0.39,0.882,0.438,1.542c0.048,0.658,0.077,1.506,0.077,2.532v25.089h8.07v-20.103c0-1.417,0.23-2.715,0.695-3.889
		c0.463-1.172,1.101-2.175,1.909-3.003c0.805-0.837,1.744-1.484,2.821-1.948c1.074-0.464,2.249-0.695,3.525-0.695
		c2.393,0.05,4.385,0.843,5.975,2.385c1.589,1.541,2.359,3.703,2.313,6.49v11.909l0,0v0.86c0,8.595,5.377,9.491,12.255,8.146v-5.157
		C376.47,119.887,375.799,118.917,375.799,116.226z"/>
	<g>
		<g>
			<path fill="#00A6CA" d="M396.672,15.596c-13.729,0-25.707,7.47-32.104,18.566c-2.435,4.427-2.659,8.271-0.852,11.432
				c2.112,3.702,6.88,4.262,9.535,4.262h4.719l-1.714,5.361c-1.088,3.237-0.626,6.687,1.067,9.072
				c1.66,2.28,4.299,3.534,7.456,3.534c2.203,0,4.485-0.37,6.602-1.347c-0.563-0.806-1.029-1.696-1.386-2.644
				c-0.316-0.865-0.545-1.775-0.664-2.709c-1.331,0.514-2.825,0.729-4.29,0.729c-0.845,0-2.084-0.319-2.724-1.218
				c-0.589-0.809-0.753-2.105-0.344-3.565l2.339-7.212h7.279l1.923-6.009h-7.247l3.207-9.842h-6.387l-3.194,9.842h-6.642
				c-2.117,0-3.453-0.538-4.083-1.644c-0.713-1.245-0.083-3.781,1.684-6.775l0.071-0.119c5.577-8.266,15.021-13.704,25.748-13.704
				c17.145,0,31.046,13.903,31.046,31.046c0,17.152-13.901,31.047-31.046,31.047c-15.161,0-27.785-10.874-30.494-25.247
				l-5.893,1.202c3.275,17.116,18.318,30.053,36.387,30.053c20.463,0,37.055-16.591,37.055-37.056
				C433.728,32.188,417.135,15.596,396.672,15.596z"/>
		</g>
		<g>
			<path fill="#00A6CA" d="M420.249,62.661c-1.438,0-3.397-0.179-4.559-1.027c-0.453-0.334-1.06-0.937-1.238-1.874
				c-0.007-0.012-0.02-0.086-0.02-0.09c-0.072-0.478-0.041-1.049,0.188-1.708l4.577-14.115h-0.026h-6.34h-0.001l-3.911,12.213
				c-0.003,0.015-0.003,0.018-0.015,0.033c-1.096,3.156-4.391,5.723-7.35,5.723c-0.78,0-1.784-0.313-2.287-1.013
				c-0.387-0.535-0.753-1.463-0.287-2.844l4.583-14.112h-6.369l-3.903,12.199c-1.013,3.002-0.652,6.149,0.965,8.429
				c1.571,2.158,4.08,3.348,7.061,3.348c2.947,0,6.102-1.215,8.687-3.348c0.88,1.328,1.978,2.179,3.422,2.671
				c2.006,0.677,3.37,0.677,4.814,0.677c0.688,0,1.393-0.155,1.718-0.236c0.125-0.199,0.264-0.395,0.385-0.592
				c0.23-0.385,0.454-0.773,0.667-1.166c0.209-0.38,0.415-0.788,0.61-1.186c0.184-0.401,0.374-0.815,0.549-1.23
				c0.121-0.286,0.238-0.585,0.353-0.884C422.125,62.573,421.263,62.661,420.249,62.661z"/>
		</g>
	</g>
	<path fill="#00A6CA" d="M384,120.394c0-6.369,9.471-6.369,9.471,0C393.472,126.758,384,126.786,384,120.394z M392.646,120.394
		c0-5.404-7.806-5.404-7.806,0C384.84,125.777,392.646,125.777,392.646,120.394z M390.854,122.574v0.112h-0.741l-1.189-1.609h-0.993
		v1.609h-0.713v-4.577h1.874c0.91,0,1.624,0.547,1.624,1.498c0,0.687-0.42,1.245-1.077,1.371L390.854,122.574z M387.931,120.491
		h1.106c0.559,0,0.965-0.338,0.965-0.884c0-0.517-0.406-0.883-0.965-0.883h-1.106V120.491z"/>
</g>
</svg>
